<?xml version="1.0" standalone="no"?>
<!DOCTYPE svg PUBLIC "-//W3C//DTD SVG 20010904//EN"
 "http://www.w3.org/TR/2001/REC-SVG-20010904/DTD/svg10.dtd">
<svg version="1.0" xmlns="http://www.w3.org/2000/svg"
 width="270.000000pt" height="270.000000pt" viewBox="0 0 270.000000 270.000000"
 preserveAspectRatio="xMidYMid meet">

<g transform="translate(0.000000,270.000000) scale(0.100000,-0.100000)"
fill="#000000" stroke="none">
<path d="M1190 2306 c-143 -30 -278 -90 -386 -169 -128 -94 -254 -247 -314
-381 -38 -85 -44 -107 -28 -101 7 3 24 -1 37 -8 22 -11 28 -9 48 10 28 29 54
29 90 0 15 -13 36 -21 46 -19 16 3 15 7 -8 34 -19 23 -23 34 -15 48 25 48 86
63 139 35 28 -14 64 -73 59 -96 -2 -7 4 -14 12 -15 8 0 22 -2 31 -2 9 -1 27
-11 40 -22 l24 -20 -265 1 -265 0 -11 -38 c-6 -22 -15 -71 -19 -110 l-7 -70
60 -5 c113 -11 201 -69 248 -163 27 -56 35 -125 21 -179 -8 -28 -7 -29 24 -22
39 7 104 -9 142 -36 39 -28 67 -88 67 -146 l0 -48 34 4 c72 8 145 -53 164
-138 10 -41 10 -37 10 48 0 51 2 96 6 99 3 3 6 -7 6 -23 0 -16 3 -47 7 -69 6
-36 7 -38 14 -15 4 14 7 53 8 87 1 56 -1 62 -21 66 -14 3 -9 5 15 6 l37 1 0
-42 c0 -24 3 -66 6 -94 6 -45 9 -51 29 -51 19 0 24 6 29 45 3 24 6 109 6 188
l0 144 35 0 c34 0 35 -1 35 -40 0 -36 3 -40 25 -40 l25 0 0 -158 c0 -158 0
-159 23 -158 12 1 25 6 29 11 4 6 8 51 8 101 l0 92 40 4 c40 3 40 3 40 -30 0
-31 2 -34 23 -29 l22 6 -21 -17 c-17 -14 -22 -33 -27 -97 l-6 -80 15 49 c22
69 39 92 91 117 31 15 56 20 82 16 l38 -5 0 42 c0 56 29 112 76 150 36 29 44
31 122 31 l82 0 -10 28 c-13 40 -3 126 21 174 40 78 123 140 204 150 21 3 40
8 42 12 8 12 -25 197 -45 261 -12 36 -39 101 -61 145 -38 78 -111 185 -126
185 -4 0 -15 -20 -26 -45 -23 -58 -92 -119 -165 -145 -31 -11 -75 -27 -98 -36
-60 -22 -124 -83 -163 -156 -31 -57 -34 -71 -35 -148 0 -73 4 -94 28 -145 57
-123 171 -195 307 -195 56 0 70 -3 70 -15 0 -9 -9 -15 -23 -15 -47 0 -124 -31
-165 -66 l-42 -35 -54 15 c-104 30 -213 122 -263 221 -77 151 -70 349 17 485
38 60 117 132 179 166 l46 25 -35 -5 -35 -5 28 15 c15 8 27 18 27 23 0 4 12 6
26 3 26 -5 26 -5 10 21 -15 23 -16 29 -2 61 8 20 13 36 10 36 -3 0 -37 -16
-76 -35 -39 -20 -73 -33 -76 -30 -3 3 -5 38 -5 78 0 86 19 137 70 189 20 21
34 40 31 44 -4 3 -40 15 -80 26 -95 26 -314 33 -408 14z m170 -116 c0 -5 -4
-10 -10 -10 -5 0 -10 5 -10 10 0 6 5 10 10 10 6 0 10 -4 10 -10z m-160 -40 c0
-5 -4 -10 -10 -10 -5 0 -10 5 -10 10 0 6 5 10 10 10 6 0 10 -4 10 -10z m-150
-20 c8 -15 6 -24 -10 -40 -11 -11 -26 -17 -35 -14 -17 7 -30 47 -20 63 11 18
54 12 65 -9z m295 -89 c7 -12 -12 -24 -25 -16 -11 7 -4 25 10 25 5 0 11 -4 15
-9z m-105 -303 l0 -223 185 190 c101 105 184 197 184 206 1 13 16 25 64 47 23
11 -25 -52 -104 -138 -48 -52 -118 -132 -156 -176 -37 -45 -90 -108 -118 -139
l-50 -58 -6 -127 c-5 -105 -10 -135 -29 -175 -42 -87 -124 -151 -210 -162 -33
-5 -44 0 -96 42 -96 78 -120 100 -127 119 -6 15 -3 17 26 9 63 -16 141 -9 176
17 59 42 61 53 61 440 l0 350 100 0 100 0 0 -222z m-372 136 c-13 -13 -16 -13
-28 0 -10 13 -10 19 0 31 11 13 14 13 27 -1 14 -14 14 -17 1 -30z m507 -94
c-6 -9 -9 -9 -16 1 -10 17 0 34 13 21 6 -6 7 -16 3 -22z m719 -135 c23 -23 23
-25 5 -30 -10 -4 -19 -14 -20 -23 0 -14 -3 -13 -16 6 -8 12 -21 22 -29 22 -9
0 -6 8 9 24 12 13 23 24 24 25 1 1 13 -10 27 -24z m-187 -64 c17 -11 37 -35
44 -54 9 -26 17 -33 31 -29 21 5 125 -25 134 -39 3 -5 15 -10 27 -10 12 -1 0
-5 -28 -9 -60 -10 -236 -10 -360 -1 l-90 6 38 18 c20 10 37 25 37 33 0 27 30
73 58 88 37 21 71 20 109 -3z m-986 -74 c-1 -12 -15 -9 -19 4 -3 6 1 10 8 8 6
-3 11 -8 11 -12z m446 -294 c-2 -27 -3 -5 -3 47 0 52 1 74 3 48 2 -27 2 -69 0
-95z m653 112 c0 -8 -4 -15 -10 -15 -5 0 -10 7 -10 15 0 8 5 15 10 15 6 0 10
-7 10 -15z m-615 -250 c9 -65 -5 -113 -14 -52 -3 21 -9 38 -13 38 -4 0 -18 4
-30 9 -22 8 -21 9 7 10 17 1 24 4 18 7 -7 2 -13 11 -13 19 0 9 -4 12 -10 9 -5
-3 -10 -1 -10 4 0 6 13 11 29 11 28 0 30 -2 36 -55z"/>
<path d="M1680 2145 c-13 -14 -22 -27 -19 -29 2 -2 14 10 27 25 29 36 24 38
-8 4z"/>
<path d="M1645 2079 c-6 -17 -9 -19 -17 -8 -7 10 -8 6 -4 -13 4 -19 2 -28 -6
-28 -8 0 -5 -5 5 -11 9 -6 15 -14 12 -20 -3 -5 1 -6 9 -3 10 4 12 13 6 33 -4
16 -3 35 2 45 5 10 8 20 5 23 -3 2 -8 -5 -12 -18z"/>
<path d="M1966 1916 c-14 -22 -46 -42 -96 -60 -8 -2 4 -4 27 -3 24 1 43 5 43
10 0 4 7 7 16 7 8 0 12 5 9 10 -3 6 2 10 12 11 10 0 13 3 6 6 -9 3 -10 10 -3
24 15 27 5 24 -14 -5z"/>
<path d="M420 1156 c0 -8 15 -23 34 -34 18 -11 58 -51 88 -88 31 -38 66 -78
78 -89 13 -11 1 9 -27 45 -28 36 -51 69 -51 73 -1 5 -18 22 -38 38 -20 16 -34
29 -30 29 4 0 1 6 -6 14 -7 8 -16 12 -20 9 -5 -2 -8 1 -8 6 0 6 -4 11 -10 11
-5 0 -10 -6 -10 -14z"/>
<path d="M2285 1081 c-3 -12 -26 -33 -51 -47 -24 -14 -44 -27 -44 -29 0 -2 23
6 50 18 34 15 52 30 56 45 8 29 -2 41 -11 13z"/>
<path d="M440 1040 c0 -20 60 -156 89 -202 30 -47 46 -54 131 -61 51 -4 120
12 122 29 0 8 1 19 2 25 1 6 -26 21 -59 33 -72 27 -126 60 -194 120 -59 53
-91 72 -91 56z"/>
<path d="M1354 910 c0 -63 1 -89 3 -57 2 31 2 83 0 115 -2 31 -3 5 -3 -58z"/>
<path d="M1334 915 c0 -55 1 -76 3 -47 2 29 2 74 0 100 -2 26 -3 2 -3 -53z"/>
<path d="M2190 937 c-63 -25 -240 -119 -240 -128 0 -3 9 -15 20 -27 23 -24 25
-33 8 -28 -7 1 -10 1 -5 -1 4 -3 5 -9 1 -14 -6 -10 32 -7 42 4 4 4 12 7 17 7
11 0 -28 -32 -61 -49 -17 -9 -27 -9 -36 -2 -7 6 -16 8 -20 4 -4 -4 -39 -6 -79
-4 -54 2 -77 7 -92 21 -20 19 -21 18 -84 -52 -47 -51 -81 -79 -125 -99 -34
-16 -67 -29 -74 -29 -10 0 -9 -4 2 -16 15 -14 28 -12 149 26 170 52 178 54
145 35 -14 -8 -77 -33 -140 -56 -62 -22 -144 -52 -182 -65 -53 -20 -78 -24
-110 -18 l-41 7 35 10 c34 9 34 9 -51 31 -50 12 -104 33 -128 50 -56 39 -45
44 15 8 56 -34 100 -50 90 -33 -4 6 -2 11 3 11 6 0 11 5 11 10 0 6 -6 10 -12
10 -30 0 -120 52 -182 104 l-67 57 -30 -25 c-17 -14 -34 -26 -37 -26 -4 0 -25
11 -47 25 -22 13 -46 25 -53 25 -20 0 -83 51 -76 62 3 5 -11 1 -33 -8 -21 -9
-52 -22 -68 -28 -17 -6 -32 -15 -33 -21 -5 -17 73 -99 149 -157 277 -212 613
-264 935 -145 215 79 422 265 528 474 27 54 32 73 19 72 -5 0 -33 -10 -63 -22z
m-201 -281 c-29 -29 -90 -56 -124 -56 -9 1 144 89 154 90 2 0 -11 -15 -30 -34z
m-1104 -59 c6 -6 0 -6 -15 -2 -14 4 -32 14 -40 22 -13 13 -11 13 15 2 17 -7
35 -17 40 -22z m135 -12 c39 -19 70 -37 70 -40 0 -11 -108 30 -133 51 -40 34
-18 30 63 -11z m770 -55 c-23 -15 -120 -42 -133 -37 -12 4 106 46 133 46 13 1
13 0 0 -9z m-725 -24 c28 -8 41 -14 30 -14 -21 0 -107 25 -90 27 6 0 33 -6 60
-13z m212 -52 c-3 -3 -12 -4 -19 -1 -8 3 -5 6 6 6 11 1 17 -2 13 -5z"/>
<path d="M1373 875 c0 -38 2 -53 4 -32 2 20 2 52 0 70 -2 17 -4 1 -4 -38z"/>
<path d="M1393 875 c0 -38 2 -53 4 -32 2 20 2 52 0 70 -2 17 -4 1 -4 -38z"/>
<path d="M1505 768 c4 -40 7 -79 8 -85 1 -21 14 -15 21 10 3 12 6 50 6 85 0
57 -2 62 -21 62 -21 0 -22 -3 -14 -72z"/>
</g>
</svg>
